<?xml version="1.0" encoding="UTF-8"?>
<svg width="21px" height="20px" viewBox="0 0 21 20" version="1.1" xmlns="http://www.w3.org/2000/svg" xmlns:xlink="http://www.w3.org/1999/xlink">
    <!-- Generator: Sketch 55.1 (78136) - https://sketchapp.com -->
    <title> 2</title>
    <desc>Created with Sketch.</desc>
    <g id="Login" stroke="none" stroke-width="1" fill="none" fill-rule="evenodd">
        <g id="login-inscription-mobile-v2-copy" transform="translate(-242.000000, -313.000000)" fill="#FFFFFF" fill-rule="nonzero">
            <g id="-2" transform="translate(242.000000, 313.000000)">
                <path d="M14.3491587,12.2495274 L18.2109375,8.50661626 L12.8852163,7.7252678 L10.5,2.91115312 L8.11478365,7.7252678 L2.7890625,8.50661626 L6.65084135,12.2495274 L5.72956731,17.5551355 L10.5,15.047259 L15.2578125,17.5551355 L14.3491587,12.2495274 Z M21,7.75047259 C21,7.93530863 20.8906261,8.13694493 20.671875,8.35538752 L16.0907452,12.8166352 L17.1760817,19.1178324 C17.1844952,19.1766439 17.1887019,19.260659 17.1887019,19.3698803 C17.1887019,19.7899622 17.0162277,20 16.671274,20 C16.5114175,20 16.3431499,19.9495909 16.1664663,19.8487713 L10.5,16.8746062 L4.83353365,19.8487713 C4.64843657,19.9495909 4.48016903,20 4.32872596,20 C4.15204239,20 4.01953169,19.939089 3.9311899,19.8172653 C3.84284812,19.6954415 3.79867788,19.5463147 3.79867788,19.3698803 C3.79867788,19.3194704 3.80709126,19.2354553 3.82391827,19.1178324 L4.90925481,12.8166352 L0.315504808,8.35538752 C0.105167218,8.12854329 0,7.92690699 0,7.75047259 C0,7.43961197 0.235574567,7.24637719 0.706730769,7.17076244 L7.04206731,6.25078765 L9.88161058,0.516698173 C10.0414671,0.172231002 10.2475949,0 10.5,0 C10.7524051,0 10.9585329,0.172231002 11.1183894,0.516698173 L13.9579327,6.25078765 L20.2932692,7.17076244 C20.7644254,7.24637719 21,7.43961197 21,7.75047259 Z" id=""></path>
            </g>
        </g>
    </g>
</svg>