<?xml version="1.0" encoding="UTF-8"?>
<svg width="21px" height="20px" viewBox="0 0 21 20" version="1.1" xmlns="http://www.w3.org/2000/svg" xmlns:xlink="http://www.w3.org/1999/xlink">
    <!-- Generator: Sketch 55.1 (78136) - https://sketchapp.com -->
    <title></title>
    <desc>Created with Sketch.</desc>
    <g id="Login" stroke="none" stroke-width="1" fill="none" fill-rule="evenodd">
        <g id="login-inscription-mobile-v2-copy" transform="translate(-223.000000, -313.000000)" fill="#FFFFFF" fill-rule="nonzero">
            <g id="Etoiles-Avis" transform="translate(188.000000, 323.000000) rotate(-360.000000) translate(-188.000000, -323.000000) translate(132.000000, 313.000000)">
                <path d="M105.968102,11.6572149 L109.211678,8.50661626 L104.718631,7.85129175 L103.88565,7.7252678 L103.507023,6.96912413 L101.500297,2.91115312 L101.500297,15.047259 L102.244931,15.4379332 L106.258383,17.5551355 L105.501128,13.0812854 L105.349677,12.2495274 L105.968102,11.6572149 Z M111.672757,8.35538752 L107.091364,12.8166352 L108.176763,19.1178324 C108.218833,19.3950865 108.193591,19.6114254 108.101037,19.7668557 C108.008483,19.922286 107.865448,20 107.671926,20 C107.528888,20 107.360611,19.9495909 107.167089,19.8487713 L101.500297,16.8746062 L95.8335043,19.8487713 C95.6399826,19.9495909 95.4717054,20 95.3286676,20 C95.1351459,20 94.9921102,19.922286 94.8995564,19.7668557 C94.8070025,19.6114254 94.7817609,19.3950865 94.8238308,19.1178324 L95.9092299,12.8166352 L91.3152154,8.35538752 C91.0459678,8.0865351 90.9492084,7.83659011 91.0249343,7.60554505 C91.1006602,7.3745 91.3278345,7.22957391 91.7064639,7.17076244 L98.0421651,6.25078765 L100.881872,0.516698173 C101.050152,0.172231002 101.256291,0 101.500297,0 C101.735888,0 101.942028,0.172231002 102.118722,0.516698173 L104.958429,6.25078765 L111.29413,7.17076244 C111.672759,7.22957391 111.899933,7.3745 111.975659,7.60554505 C112.051385,7.83659011 111.950419,8.0865351 111.672757,8.35538752 Z" id=""></path>
            </g>
        </g>
    </g>
</svg>